<?xml version="1.0" encoding="UTF-8" standalone="no"?>
<!-- Generator: Adobe Illustrator 19.0.0, SVG Export Plug-In . SVG Version: 6.00 Build 0)  -->

<svg
   xmlns:dc="http://purl.org/dc/elements/1.1/"
   xmlns:cc="http://creativecommons.org/ns#"
   xmlns:rdf="http://www.w3.org/1999/02/22-rdf-syntax-ns#"
   xmlns:svg="http://www.w3.org/2000/svg"
   xmlns="http://www.w3.org/2000/svg"
   xmlns:xlink="http://www.w3.org/1999/xlink"
   xmlns:sodipodi="http://sodipodi.sourceforge.net/DTD/sodipodi-0.dtd"
   xmlns:inkscape="http://www.inkscape.org/namespaces/inkscape"
   version="1.1"
   id="Capa_1"
   x="0px"
   y="0px"
   viewBox="0 0 501.761 501.761"
   style="enable-background:new 0 0 501.761 501.761;"
   xml:space="preserve"
   sodipodi:docname="galaxylogo.svg"
   inkscape:version="0.92.4 (5da689c313, 2019-01-14)"><metadata
   id="metadata95"><rdf:RDF><cc:Work
       rdf:about=""><dc:format>image/svg+xml</dc:format><dc:type
         rdf:resource="http://purl.org/dc/dcmitype/StillImage" /><dc:title /></cc:Work></rdf:RDF></metadata><defs
   id="defs93"><linearGradient
     inkscape:collect="always"
     id="linearGradient899"><stop
       style="stop-color:#fff9bb;stop-opacity:0.45238096"
       offset="0"
       id="stop895" /><stop
       id="stop905"
       offset="0.54864794"
       style="stop-color:#e1e1e1;stop-opacity:0.07619048" /><stop
       style="stop-color:#f9f6b1;stop-opacity:0.05714286"
       offset="0.83997118"
       id="stop907" /><stop
       style="stop-color:#fdfaaa;stop-opacity:0"
       offset="1"
       id="stop897" /></linearGradient><linearGradient
     inkscape:collect="always"
     id="linearGradient886"><stop
       style="stop-color:#fff985;stop-opacity:0.76303315"
       offset="0"
       id="stop882" /><stop
       style="stop-color:#fff5b3;stop-opacity:0"
       offset="1"
       id="stop884" /></linearGradient><linearGradient
     inkscape:collect="always"
     id="linearGradient2502"><stop
       style="stop-color:#2f4858;stop-opacity:1"
       offset="0"
       id="stop2498" /><stop
       style="stop-color:#0a56a0;stop-opacity:0.89411765"
       offset="1"
       id="stop2500" /></linearGradient><linearGradient
     inkscape:collect="always"
     id="linearGradient2488"><stop
       style="stop-color:#ff07b4;stop-opacity:1"
       offset="0"
       id="stop2484" /><stop
       style="stop-color:#586ba4;stop-opacity:1"
       offset="1"
       id="stop2486" /></linearGradient><linearGradient
     inkscape:collect="always"
     id="linearGradient2453"><stop
       style="stop-color:#b32a2e;stop-opacity:1"
       offset="0"
       id="stop2449" /><stop
       style="stop-color:#b4618a;stop-opacity:1"
       offset="1"
       id="stop2451" /></linearGradient><linearGradient
     inkscape:collect="always"
     id="linearGradient2439"><stop
       style="stop-color:#fff20b;stop-opacity:1"
       offset="0"
       id="stop2435" /><stop
       style="stop-color:#ffb72c;stop-opacity:1"
       offset="1"
       id="stop2437" /></linearGradient><linearGradient
     inkscape:collect="always"
     id="linearGradient953-4"><stop
       style="stop-color:#ffffea;stop-opacity:1"
       offset="0"
       id="stop949" /><stop
       id="stop957"
       offset="1"
       style="stop-color:#ffffa8;stop-opacity:1" /></linearGradient><radialGradient
     inkscape:collect="always"
     xlink:href="#linearGradient953-4"
     id="radialGradient955"
     cx="248.38106"
     cy="249.81409"
     fx="248.38106"
     fy="249.81409"
     r="8.6311417"
     gradientTransform="matrix(4.0877631,-3.2047686,1.4525461,1.3088161,-1129.2746,715.34937)"
     gradientUnits="userSpaceOnUse"
     spreadMethod="pad" /><radialGradient
     inkscape:collect="always"
     xlink:href="#linearGradient2439"
     id="radialGradient2443"
     cx="248.86295"
     cy="250.88499"
     fx="248.86295"
     fy="250.88499"
     r="116.57958"
     gradientTransform="matrix(0.56680317,-0.47040672,0.1682295,0.1431926,66.668077,328.9602)"
     gradientUnits="userSpaceOnUse"
     spreadMethod="reflect" /><radialGradient
     inkscape:collect="always"
     xlink:href="#linearGradient2453"
     id="radialGradient2457"
     cx="248.86275"
     cy="250.88499"
     fx="248.86275"
     fy="250.88499"
     r="167.50957"
     gradientTransform="matrix(0.68103935,-0.58872299,0.23882145,0.19516154,20.528453,345.36634)"
     gradientUnits="userSpaceOnUse"
     spreadMethod="pad" /><radialGradient
     inkscape:collect="always"
     xlink:href="#linearGradient2488"
     id="radialGradient2492"
     cx="248.87038"
     cy="250.88783"
     fx="248.87038"
     fy="250.88783"
     r="209.86772"
     gradientTransform="matrix(0.74399335,-0.61799819,0.30245775,0.25722086,-11.104729,337.08784)"
     gradientUnits="userSpaceOnUse" /><radialGradient
     inkscape:collect="always"
     xlink:href="#linearGradient2502"
     id="radialGradient2510"
     cx="250.88058"
     cy="250.88087"
     fx="250.88058"
     fy="250.88087"
     r="248.83755"
     gradientTransform="matrix(0.80896202,-0.78347854,0.30278879,0.31263732,-28.036197,369.0057)"
     gradientUnits="userSpaceOnUse"
     spreadMethod="reflect" /><radialGradient
     inkscape:collect="always"
     xlink:href="#linearGradient886"
     id="radialGradient892"
     gradientUnits="userSpaceOnUse"
     gradientTransform="matrix(0.73371152,-0.55726106,0.48666115,0.45264009,-534.44947,-244.50002)"
     cx="253.69603"
     cy="253.32681"
     fx="253.69603"
     fy="253.32681"
     r="222.87666" /><radialGradient
     inkscape:collect="always"
     xlink:href="#linearGradient2453"
     id="radialGradient894"
     gradientUnits="userSpaceOnUse"
     gradientTransform="matrix(0.68103935,-0.58872299,0.23882145,0.19516154,20.528453,345.36634)"
     cx="248.86275"
     cy="250.88499"
     fx="248.86275"
     fy="250.88499"
     r="167.50957"
     spreadMethod="pad" /><radialGradient
     inkscape:collect="always"
     xlink:href="#linearGradient2502"
     id="radialGradient896"
     gradientUnits="userSpaceOnUse"
     gradientTransform="matrix(0.80896202,-0.78347854,0.30278879,0.31263732,-28.036197,369.0057)"
     cx="250.88058"
     cy="250.88087"
     fx="250.88058"
     fy="250.88087"
     r="248.83755"
     spreadMethod="reflect" /><radialGradient
     inkscape:collect="always"
     xlink:href="#linearGradient2502"
     id="radialGradient898"
     gradientUnits="userSpaceOnUse"
     gradientTransform="matrix(0.80896202,-0.78347854,0.30278879,0.31263732,-28.036197,369.0057)"
     cx="250.88058"
     cy="250.88087"
     fx="250.88058"
     fy="250.88087"
     r="248.83755"
     spreadMethod="reflect" /><radialGradient
     inkscape:collect="always"
     xlink:href="#linearGradient899"
     id="radialGradient903"
     cx="255.57526"
     cy="248.4408"
     fx="255.57526"
     fy="248.4408"
     r="236.78296"
     gradientUnits="userSpaceOnUse"
     gradientTransform="matrix(1.0656268,-0.78498922,0.41621553,0.56501474,-120.17754,308.69191)" /></defs><sodipodi:namedview
   pagecolor="#ffffff"
   bordercolor="#666666"
   borderopacity="1"
   objecttolerance="10"
   gridtolerance="10"
   guidetolerance="10"
   inkscape:pageopacity="0"
   inkscape:pageshadow="2"
   inkscape:window-width="2256"
   inkscape:window-height="1410"
   id="namedview91"
   showgrid="false"
   showguides="false"
   inkscape:zoom="0.6651661"
   inkscape:cx="-198.8539"
   inkscape:cy="159.33841"
   inkscape:window-x="-11"
   inkscape:window-y="-11"
   inkscape:window-maximized="1"
   inkscape:current-layer="g58" />
<g
   id="g58">
	<circle
   style="opacity:1;fill:url(#radialGradient903);fill-opacity:1;fill-rule:evenodd"
   id="path891"
   cx="255.57526"
   cy="248.4408"
   r="236.78296" /><path
   style="fill:none;stroke-width:0.67629761"
   d="m 283.60099,320.23482 c -0.48688,0.34907 -0.97449,0.69628 -1.4621,1.04226 0.48761,-0.34598 0.97522,-0.69381 1.4621,-1.04226 z"
   id="path2"
   inkscape:connector-curvature="0" />
	<path
   style="fill:none;stroke-width:0.67629761"
   d="m 287.9681,317.06903 c -0.42933,0.31496 -0.85867,0.62621 -1.288,0.93932 0.42933,-0.31311 0.85867,-0.62374 1.288,-0.93932 z"
   id="path4"
   inkscape:connector-curvature="0" />
	<path
   style="fill:none;stroke-width:0.67629761"
   d="m 279.05535,323.44527 c -0.43007,0.30008 -0.86088,0.60203 -1.29095,0.90026 0.43007,-0.29823 0.86014,-0.60018 1.29095,-0.90026 z"
   id="path6"
   inkscape:connector-curvature="0" />
	<path
   style="fill:none;stroke-width:0.67629761"
   d="m 250.15715,341.89012 c -0.39762,0.23065 -0.79522,0.45695 -1.19284,0.68573 0.39835,-0.22878 0.79522,-0.45508 1.19284,-0.68573 z"
   id="path8"
   inkscape:connector-curvature="0" />
	<path
   style="fill:none;stroke-width:0.67629761"
   d="m 297.87305,309.57056 c -0.43377,0.3379 -0.86679,0.67767 -1.30055,1.0131 0.43376,-0.33543 0.86678,-0.6752 1.30055,-1.0131 z"
   id="path10"
   inkscape:connector-curvature="0" />
	<path
   style="fill:none;stroke-width:0.67629761"
   d="m 260.11816,335.90883 c -0.42049,0.26102 -0.84171,0.5239 -1.26219,0.78245 0.42048,-0.25855 0.8417,-0.52205 1.26219,-0.78245 z"
   id="path12"
   inkscape:connector-curvature="0" />
	<path
   style="fill:none;stroke-width:0.67629761"
   d="m 264.67855,333.04125 c -0.47803,0.30505 -0.95532,0.60824 -1.43334,0.9108 0.47802,-0.30256 0.95531,-0.60637 1.43334,-0.9108 z"
   id="path14"
   inkscape:connector-curvature="0" />
	<path
   style="fill:none;stroke-width:0.67629761"
   d="m 392.83713,201.12359 c -0.36367,0.74278 -0.73399,1.48804 -1.1139,2.2364 0.37991,-0.74836 0.75023,-1.493 1.1139,-2.2364 z"
   id="path16"
   inkscape:connector-curvature="0" />
	<path
   style="fill:none;stroke-width:0.67629761"
   d="m 389.18484,125.96962 c 0.0568,0.0384 0.1114,0.0793 0.16819,0.11843 -0.0568,-0.0385 -0.11139,-0.08 -0.16819,-0.11843 z"
   id="path18"
   inkscape:connector-curvature="0" />
	<path
   style="fill:none;stroke-width:0.67629761"
   d="m 390.69416,127.04163 c 0.51489,0.38751 1.01948,0.78432 1.51004,1.19663 -0.49056,-0.41231 -0.9944,-0.81098 -1.51004,-1.19663 z"
   id="path20"
   inkscape:connector-curvature="0" />
	<path
   style="fill:none;stroke-width:0.67629761"
   d="m 245.79225,344.38382 c -0.46327,0.26103 -0.92654,0.52081 -1.38981,0.77874 0.46327,-0.25855 0.92654,-0.51771 1.38981,-0.77874 z"
   id="path22"
   inkscape:connector-curvature="0" />
	<path
   style="fill:none;stroke-width:0.67629761"
   d="m 306.65448,302.55755 c -0.43154,0.35403 -0.86456,0.7031 -1.29685,1.05465 0.43229,-0.35155 0.86531,-0.70124 1.29685,-1.05465 z"
   id="path24"
   inkscape:connector-curvature="0" />
	<path
   style="fill:none;stroke-width:0.67629761"
   d="m 302.35376,306.03646 c -0.48688,0.38938 -0.97448,0.77688 -1.46209,1.16377 0.48761,-0.38689 0.97521,-0.77501 1.46209,-1.16377 z"
   id="path26"
   inkscape:connector-curvature="0" />
	<path
   style="fill:none;stroke-width:0.67629761"
   d="m 269.07074,330.20158 c -0.41827,0.27467 -0.83727,0.54437 -1.25554,0.81718 0.41827,-0.27219 0.83654,-0.54251 1.25554,-0.81718 z"
   id="path28"
   inkscape:connector-curvature="0" />
	<path
   style="fill:none;stroke-width:0.67629761"
   d="m 98.245732,317.00764 c -0.045,0.15997 -0.09074,0.32055 -0.134997,0.48051 0.04427,-0.15934 0.09,-0.31992 0.134997,-0.48051 z"
   id="path30"
   inkscape:connector-curvature="0" />
	<path
   style="fill:none;stroke-width:0.67629761"
   d="m 97.572222,319.53111 c -0.02287,0.0918 -0.04647,0.18352 -0.06934,0.27466 0.02287,-0.0911 0.04574,-0.1829 0.06934,-0.27466 z"
   id="path32"
   inkscape:connector-curvature="0" />
	<path
   style="fill:none;stroke-width:0.67629761"
   d="m 101.33959,307.59208 c 0.004,-0.0106 0.007,-0.0217 0.0118,-0.0323 -0.004,0.01 -0.008,0.0204 -0.011,0.0297 z"
   id="path34"
   inkscape:connector-curvature="0" />
	<path
   style="fill:none;stroke-width:0.67629761"
   d="m 98.993748,314.46744 c -0.0627,0.20275 -0.12762,0.40673 -0.188111,0.60948 0.06049,-0.20213 0.125408,-0.40611 0.188111,-0.60948 z"
   id="path36"
   inkscape:connector-curvature="0" />
	<path
   style="fill:none;stroke-width:0.67629761"
   d="m 99.787501,311.98985 c -0.06713,0.20089 -0.137948,0.40363 -0.203602,0.6039 0.06565,-0.20089 0.136472,-0.40301 0.203602,-0.6039 z"
   id="path38"
   inkscape:connector-curvature="0" />
	<path
   style="fill:none;stroke-width:0.67629761"
   d="m 102.32367,305.05994 c -0.30835,0.74092 -0.59458,1.4744 -0.85719,2.20043 0.27663,-0.73037 0.56359,-1.46386 0.85719,-2.20043 z"
   id="path40"
   inkscape:connector-curvature="0" />
	<path
   style="fill:none;stroke-width:0.67629761"
   d="m 241.26063,346.89364 c -0.40352,0.22011 -0.80777,0.44269 -1.21054,0.66032 0.40351,-0.21763 0.80702,-0.44021 1.21054,-0.66032 z"
   id="path42"
   inkscape:connector-curvature="0" />
	<path
   style="fill:none;stroke-width:0.67629761"
   d="m 397.40122,190.92557 c 10.92442,-27.15297 10.05838,-49.86601 -5.19628,-62.68669 v 0 c 15.25466,12.82068 16.1207,35.53372 5.19628,62.68669 z"
   id="path44"
   inkscape:connector-curvature="0" />
	
	<g
   id="g2496"
   style="fill:url(#radialGradient2510);fill-opacity:1"
   transform="matrix(0.73768832,0,0,0.62001579,66.347351,92.26556)"><path
     id="path46"
     d="M 477.729,22.02 C 421.048,-34.661 272.633,21.858 146.235,148.257 301.69,26.208 386.373,32.094 420.799,45.168 c 6.279,2.178 11.918,5.232 16.835,9.192 0.077,0.062 0.151,0.128 0.228,0.191 0.615,0.501 1.227,1.008 1.819,1.538 0.699,0.623 1.382,1.265 2.047,1.93 0,0 10e-4,0.001 10e-4,0.001 v 0 0 c 20.678,20.678 21.853,57.311 7.044,101.105 -1.819,5.378 -3.892,10.87 -6.187,16.448 -0.493,1.198 -0.995,2.4 -1.51,3.607 -20.626,48.373 -58.534,103.284 -109.584,154.334 -1.906,1.906 -3.819,3.788 -5.735,5.658 -0.585,0.571 -1.172,1.134 -1.758,1.701 -1.355,1.312 -2.712,2.616 -4.072,3.91 -0.66,0.628 -1.32,1.253 -1.982,1.877 -1.362,1.285 -2.727,2.558 -4.093,3.824 -0.588,0.545 -1.175,1.093 -1.763,1.634 -3.875,3.563 -7.764,7.05 -11.663,10.46 -0.582,0.509 -1.164,1.01 -1.746,1.515 -1.39,1.206 -2.781,2.404 -4.174,3.591 -0.661,0.563 -1.321,1.123 -1.982,1.681 -1.393,1.176 -2.786,2.341 -4.18,3.497 -0.583,0.484 -1.167,0.971 -1.75,1.452 -3.925,3.23 -7.855,6.379 -11.785,9.446 -0.568,0.443 -1.135,0.878 -1.702,1.318 -1.417,1.097 -2.834,2.186 -4.251,3.262 -0.648,0.492 -1.295,0.981 -1.943,1.469 -1.414,1.063 -2.826,2.115 -4.239,3.156 -0.57,0.421 -1.141,0.845 -1.711,1.262 -3.937,2.88 -7.869,5.676 -11.792,8.385 -0.539,0.372 -1.078,0.737 -1.617,1.106 -1.435,0.983 -2.868,1.956 -4.301,2.915 -0.628,0.421 -1.256,0.839 -1.884,1.256 -1.421,0.943 -2.841,1.873 -4.259,2.792 -0.547,0.355 -1.095,0.714 -1.641,1.065 -1.937,1.246 -3.872,2.475 -5.802,3.677 C 324.554,358.223 444.364,264.4 488.082,147.953 505.886,93.897 503.887,48.178 477.729,22.02 Z"
     style="fill:url(#radialGradient896);fill-opacity:1"
     inkscape:connector-curvature="0" /><path
     id="path48"
     d="m 42.234,366.992 c 0.031,-0.148 0.062,-0.296 0.094,-0.443 0.232,-1.092 0.474,-2.19 0.73,-3.295 0.06,-0.258 0.122,-0.517 0.183,-0.775 0.244,-1.034 0.494,-2.07 0.758,-3.114 0.083,-0.326 0.171,-0.655 0.255,-0.983 0.26,-1.004 0.522,-2.01 0.8,-3.023 0.089,-0.323 0.185,-0.65 0.276,-0.974 0.656,-2.342 1.35,-4.703 2.104,-7.093 v -0.004 c 0.005,-0.016 0.01,-0.032 0.015,-0.048 0.051,-0.161 0.105,-0.323 0.156,-0.483 0.356,-1.171 0.744,-2.354 1.162,-3.549 17.77,-52.968 59.005,-116.492 117.465,-174.951 39.73,-39.73 81.799,-71.501 121.305,-93.363 -251.814,136.88 -323.685,348.712 -267.54,404.857 47.452,47.452 159.198,15.527 268.495,-70.28 -184.956,94.549 -232.601,54.07 -244.957,14.421 -5.675,-15.454 -5.921,-34.884 -1.301,-56.9 z"
     style="fill:url(#radialGradient898);fill-opacity:1"
     inkscape:connector-curvature="0" /></g>
	<path
   style="fill:url(#radialGradient2492);fill-opacity:1;stroke-width:0.67629761"
   d="m 241.26063,346.89364 c 1.04604,-0.57041 2.09282,-1.14641 3.14181,-1.73108 0.46327,-0.25855 0.92654,-0.51771 1.38981,-0.77874 1.05637,-0.59522 2.11421,-1.19787 3.17279,-1.80735 0.39762,-0.22878 0.79523,-0.45508 1.19285,-0.68573 2.89395,-1.67962 5.79454,-3.41319 8.69882,-5.19884 0.42049,-0.25855 0.84096,-0.52142 1.26218,-0.78245 1.04235,-0.64606 2.08472,-1.2977 3.12707,-1.95678 0.47802,-0.30194 0.9553,-0.60575 1.43332,-0.9108 1.0453,-0.66713 2.09062,-1.34171 3.13592,-2.02249 0.419,-0.27219 0.83727,-0.54251 1.25554,-0.81718 2.89911,-1.90159 5.79824,-3.85402 8.69366,-5.85667 0.43081,-0.29761 0.86088,-0.60018 1.29095,-0.90026 1.02834,-0.71674 2.05668,-1.43906 3.08354,-2.16819 0.48761,-0.34598 0.97449,-0.69381 1.4621,-1.04226 1.02686,-0.73533 2.05298,-1.47811 3.07911,-2.22647 0.42933,-0.31311 0.85867,-0.62374 1.288,-0.93932 2.87625,-2.11364 5.74512,-4.27564 8.60366,-6.48537 0.4345,-0.33543 0.86752,-0.67582 1.30054,-1.0131 1.00769,-0.78495 2.0139,-1.57423 3.01937,-2.37095 0.48761,-0.38627 0.97521,-0.77439 1.46209,-1.16377 1.00326,-0.80168 2.00431,-1.61079 3.00387,-2.42426 0.43229,-0.35155 0.86531,-0.70124 1.29685,-1.05465 1.41342,-1.15881 2.82461,-2.32629 4.23064,-3.50805 37.659,-31.6518 65.62328,-65.69748 80.83884,-95.68951 0.37992,-0.74836 0.75024,-1.49362 1.11392,-2.2364 1.69225,-3.45844 3.22222,-6.86357 4.56407,-10.19802 10.92442,-27.15235 10.05838,-49.86601 -5.19627,-62.68669 v 0 c 0,0 -7.4e-4,-6.2e-4 -7.4e-4,-6.2e-4 -0.49056,-0.41231 -0.99589,-0.80912 -1.51005,-1.19663 -0.43672,-0.32861 -0.88744,-0.64234 -1.34186,-0.95359 -0.0568,-0.039 -0.11139,-0.08 -0.16819,-0.11842 -3.62721,-2.45527 -7.78704,-4.34879 -12.41898,-5.69919 -23.54997,-6.86729 -59.22531,0.25421 -98.30434,18.42997 -29.14312,13.55479 -60.17693,33.25331 -89.48529,57.88653 -43.12452,36.24613 -73.5431,75.63263 -86.65256,108.47363 -0.29433,0.73657 -0.58056,1.47006 -0.85719,2.20043 -0.0376,0.0998 -0.0775,0.20027 -0.11508,0.29947 -0.004,0.0106 -0.007,0.0217 -0.0118,0.0322 -0.55695,1.48122 -1.06817,2.94507 -1.552089,4.39777 -0.06713,0.20089 -0.137948,0.40363 -0.203602,0.6039 -0.205815,0.62808 -0.39909,1.25181 -0.590151,1.87431 -0.0627,0.20275 -0.12762,0.40673 -0.18811,0.60947 -0.195488,0.6473 -0.379172,1.29026 -0.559168,1.93073 -0.045,0.15997 -0.09074,0.32055 -0.134997,0.48051 -0.188849,0.68512 -0.367369,1.3659 -0.538513,2.04295 -0.02287,0.0918 -0.04647,0.18353 -0.06934,0.27467 -3.408857,13.65089 -3.226648,25.69718 0.959733,35.2789 2.071427,4.74064 5.112917,8.88358 9.193067,12.3129 23.15235,19.45919 73.41917,11.06107 128.11433,-17.56443 1.42374,-0.74526 2.85117,-1.50788 4.28007,-2.2798 0.40278,-0.21763 0.80629,-0.44021 1.20981,-0.66032 z m -107.04817,-1.81603 c -23.88635,-20.0761 8.55866,-79.89522 72.4683,-133.6103 63.90962,-53.71506 135.08179,-80.98397 158.96814,-60.90849 23.88635,20.07549 -8.55867,79.89524 -72.46829,133.61031 -63.90963,53.71506 -135.0818,80.9846 -158.96815,60.90848 z"
   id="path50"
   inkscape:connector-curvature="0" />
	<path
   style="fill:url(#radialGradient2457);fill-opacity:1;stroke-width:0.67629761"
   d="m 365.6489,150.55882 c -23.88635,-20.0761 -95.05852,7.19343 -158.96814,60.90849 -63.90964,53.71508 -96.35465,113.5342 -72.4683,133.6103 23.88635,20.07612 95.05852,-7.19342 158.96815,-60.90848 63.90889,-53.71507 96.35389,-113.5342 72.46829,-133.61031 z M 168.3667,316.37151 c -15.01565,-12.62043 9.32954,-53.54333 54.37574,-91.40459 45.04619,-37.86126 93.73658,-58.32241 108.75222,-45.70198 15.01565,12.62041 -9.32954,53.54332 -54.37574,91.40458 -45.04694,37.86065 -93.73658,58.32241 -108.75222,45.70199 z"
   id="path52"
   inkscape:connector-curvature="0" />
	<path
   style="fill:url(#radialGradient2443);fill-opacity:1;stroke-width:0.67629761"
   d="m 331.49466,179.26494 c -15.01564,-12.62043 -63.70528,7.84134 -108.75222,45.70198 -45.04693,37.86064 -69.39139,78.78416 -54.37574,91.40459 15.01564,12.62042 63.70528,-7.84134 108.75222,-45.70199 45.0462,-37.86126 69.39139,-78.78417 54.37574,-91.40458 z m -70.68897,77.69417 c -24.02504,20.19267 -48.3695,32.46961 -54.37576,27.42144 -6.00625,-5.04816 -0.26113,-32.95818 23.7639,-53.15085 24.02504,-20.19268 57.23208,-25.02136 63.23834,-19.97319 6.00551,5.04817 -8.60146,25.50993 -32.62648,45.7026 z"
   id="path54"
   inkscape:connector-curvature="0" />
	<path
   style="opacity:1;fill:url(#radialGradient955);fill-opacity:1;stroke-width:0.67629761"
   d="m 230.19309,231.2297 c -24.02504,20.19267 -29.77015,48.10269 -23.76389,53.15085 6.00626,5.04817 30.35145,-7.22877 54.37574,-27.42144 24.02504,-20.19267 38.632,-40.65381 32.62575,-45.70198 -6.00553,-5.04879 -39.21257,-0.22011 -63.2376,19.97257 z"
   id="path56"
   inkscape:connector-curvature="0" />
<path
   id="path2508"
   d="m 365.6489,150.55882 c -23.88635,-20.0761 -95.05852,7.19343 -158.96814,60.90849 -63.90964,53.71508 -96.35465,113.5342 -72.4683,133.6103 23.88635,20.07612 95.05852,-7.19342 158.96815,-60.90848 63.90889,-53.71507 96.35389,-113.5342 72.46829,-133.61031 z M 168.3667,316.37151 c -15.01565,-12.62043 9.32954,-53.54333 54.37574,-91.40459 45.04619,-37.86126 93.73658,-58.32241 108.75222,-45.70198 15.01565,12.62041 -9.32954,53.54332 -54.37574,91.40458 -45.04694,37.86065 -93.73658,58.32241 -108.75222,45.70199 z"
   style="fill:url(#radialGradient894);fill-opacity:1;stroke-width:0.67629761"
   inkscape:connector-curvature="0" /><ellipse
   style="opacity:1;fill:url(#radialGradient892);fill-opacity:1;fill-rule:evenodd;stroke:#ffffff;stroke-width:1.296;stroke-miterlimit:4;stroke-dasharray:none;stroke-opacity:0"
   id="path880"
   cx="-225.02547"
   cy="-271.20905"
   rx="226.19289"
   ry="190.11168"
   transform="rotate(174.77263)" /></g>
<g
   id="g60">
</g>
<g
   id="g62">
</g>
<g
   id="g64">
</g>
<g
   id="g66">
</g>
<g
   id="g68">
</g>
<g
   id="g70">
</g>
<g
   id="g72">
</g>
<g
   id="g74">
</g>
<g
   id="g76">
</g>
<g
   id="g78">
</g>
<g
   id="g80">
</g>
<g
   id="g82">
</g>
<g
   id="g84">
</g>
<g
   id="g86">
</g>
<g
   id="g88">
</g>
</svg>